<?xml version="1.0" encoding="UTF-8"?>
<svg version="1.1" xmlns="http://www.w3.org/2000/svg" width="128" height="128">
<path d="M0 0 C22.73423545 -0.51237425 47.90561716 4.30130265 65.73364258 19.47558594 C68.14022929 22.37258371 68.33126066 25.4064508 68 29 C66.50372054 33.63891655 64.46337445 37.97639145 62.375 42.375 C61.57255859 44.12683594 61.57255859 44.12683594 60.75390625 45.9140625 C59.19811307 49.29062581 57.60913494 52.64856734 56 56 C55.52336914 56.99290039 55.04673828 57.98580078 54.55566406 59.00878906 C51.26749297 65.73250703 51.26749297 65.73250703 49 68 C47.24114673 68.35686878 45.46661675 68.63906841 43.6875 68.875 C38.95260849 69.65080797 36.61565004 70.78608885 33 74 C28.89311819 75.4667435 25.35968089 76.26422308 21 76 C20.80921875 76.91394531 20.6184375 77.82789062 20.421875 78.76953125 C18.59195061 82.92707925 16.21535241 83.95752493 12.25 85.6875 C10.80782066 86.35771396 9.36646098 87.02969355 7.92578125 87.703125 C7.14154785 88.06341797 6.35731445 88.42371094 5.54931641 88.79492188 C2.76419929 90.1114645 0.0292426 91.50670335 -2.70703125 92.921875 C-3.67737305 93.42114502 -4.64771484 93.92041504 -5.64746094 94.43481445 C-7.55854553 95.41996735 -9.4668647 96.41050757 -11.37207031 97.40698242 C-17.59600246 100.57252529 -22.48383285 102.94183049 -29.5 101.0625 C-34.09081776 98.77215825 -36.82713052 94.91734164 -40 91 C-42.0716678 88.57326998 -44.16281895 86.16339114 -46.25 83.75 C-47.27776384 82.55877535 -48.30388384 81.36612988 -49.328125 80.171875 C-49.7705957 79.6572168 -50.21306641 79.14255859 -50.66894531 78.61230469 C-51.32781738 77.81421387 -51.32781738 77.81421387 -52 77 C-52.53052979 76.43039551 -53.06105957 75.86079102 -53.60766602 75.27392578 C-55.53517274 72.12596898 -55.69187396 69.0434874 -55.94921875 65.4453125 C-56.01156204 64.70731415 -56.07390533 63.9693158 -56.13813782 63.20895386 C-56.26767423 61.64436319 -56.39083251 60.07923316 -56.50805664 58.51367188 C-56.68437786 56.16656053 -56.88035304 53.82178538 -57.08007812 51.4765625 C-59.20201105 25.73316999 -59.20201105 25.73316999 -56.73535156 22.17651367 C-54.73276379 20.81882227 -53.35598614 20.44969547 -50.96484375 20.12109375 C-50.16385254 20.00548096 -49.36286133 19.88986816 -48.53759766 19.77075195 C-47.25054932 19.60579224 -47.25054932 19.60579224 -45.9375 19.4375 C-45.05368652 19.31528076 -44.16987305 19.19306152 -43.25927734 19.06713867 C-40.50814566 18.6937673 -37.75512148 18.34261087 -35 18 C-33.71101807 17.83902832 -33.71101807 17.83902832 -32.39599609 17.67480469 C-29.97333133 17.37780551 -27.54983604 17.09118467 -25.125 16.8125 C-24.39531006 16.72863037 -23.66562012 16.64476074 -22.91381836 16.55834961 C-18.92344428 16.12697039 -15.01282665 15.91823394 -11 16 C-10.71125 15.21625 -10.4225 14.4325 -10.125 13.625 C-9 11 -9 11 -7 9 C-6.01 9 -5.02 9 -4 9 C-2.68 6.03 -1.36 3.06 0 0 Z " fill="#E7F0F9" transform="translate(59,13)"/>
<path d="M0 0 C22.73423545 -0.51237425 47.90561716 4.30130265 65.73364258 19.47558594 C68.14022929 22.37258371 68.33126066 25.4064508 68 29 C66.50372054 33.63891655 64.46337445 37.97639145 62.375 42.375 C61.57255859 44.12683594 61.57255859 44.12683594 60.75390625 45.9140625 C59.19811307 49.29062581 57.60913494 52.64856734 56 56 C55.52336914 56.99290039 55.04673828 57.98580078 54.55566406 59.00878906 C51.26749297 65.73250703 51.26749297 65.73250703 49 68 C47.24114673 68.35686878 45.46661675 68.63906841 43.6875 68.875 C38.95260849 69.65080797 36.61565004 70.78608885 33 74 C28.89311819 75.4667435 25.35968089 76.26422308 21 76 C20.80921875 76.91394531 20.6184375 77.82789062 20.421875 78.76953125 C18.59195061 82.92707925 16.21535241 83.95752493 12.25 85.6875 C10.80782066 86.35771396 9.36646098 87.02969355 7.92578125 87.703125 C7.14154785 88.06341797 6.35731445 88.42371094 5.54931641 88.79492188 C2.76419929 90.1114645 0.0292426 91.50670335 -2.70703125 92.921875 C-3.67737305 93.42114502 -4.64771484 93.92041504 -5.64746094 94.43481445 C-7.55854553 95.41996735 -9.4668647 96.41050757 -11.37207031 97.40698242 C-17.59600246 100.57252529 -22.48383285 102.94183049 -29.5 101.0625 C-34.09081776 98.77215825 -36.82713052 94.91734164 -40 91 C-42.0716678 88.57326998 -44.16281895 86.16339114 -46.25 83.75 C-47.27776384 82.55877535 -48.30388384 81.36612988 -49.328125 80.171875 C-49.7705957 79.6572168 -50.21306641 79.14255859 -50.66894531 78.61230469 C-51.32781738 77.81421387 -51.32781738 77.81421387 -52 77 C-52.53052979 76.43039551 -53.06105957 75.86079102 -53.60766602 75.27392578 C-55.53517274 72.12596898 -55.69187396 69.0434874 -55.94921875 65.4453125 C-56.01156204 64.70731415 -56.07390533 63.9693158 -56.13813782 63.20895386 C-56.26767423 61.64436319 -56.39083251 60.07923316 -56.50805664 58.51367188 C-56.68437786 56.16656053 -56.88035304 53.82178538 -57.08007812 51.4765625 C-59.20201105 25.73316999 -59.20201105 25.73316999 -56.73535156 22.17651367 C-54.73276379 20.81882227 -53.35598614 20.44969547 -50.96484375 20.12109375 C-50.16385254 20.00548096 -49.36286133 19.88986816 -48.53759766 19.77075195 C-47.25054932 19.60579224 -47.25054932 19.60579224 -45.9375 19.4375 C-45.05368652 19.31528076 -44.16987305 19.19306152 -43.25927734 19.06713867 C-40.50814566 18.6937673 -37.75512148 18.34261087 -35 18 C-33.71101807 17.83902832 -33.71101807 17.83902832 -32.39599609 17.67480469 C-29.97333133 17.37780551 -27.54983604 17.09118467 -25.125 16.8125 C-24.39531006 16.72863037 -23.66562012 16.64476074 -22.91381836 16.55834961 C-18.92344428 16.12697039 -15.01282665 15.91823394 -11 16 C-10.71125 15.21625 -10.4225 14.4325 -10.125 13.625 C-9 11 -9 11 -7 9 C-6.01 9 -5.02 9 -4 9 C-2.68 6.03 -1.36 3.06 0 0 Z M-27.05419922 19.28857422 C-32.82685924 19.84626772 -38.59335789 20.4568684 -44.3515625 21.1484375 C-45.31916504 21.26364746 -46.28676758 21.37885742 -47.28369141 21.49755859 C-50.36136665 22.06684276 -53.71914588 22.71914588 -56 25 C-56.09120362 28.01647532 -56.07119378 30.98419272 -56 34 C-55.97502441 35.25216309 -55.95004883 36.50432617 -55.92431641 37.79443359 C-56.27205649 58.15749136 -56.27205649 58.15749136 -48.49267578 76.04467773 C-46.27842188 78.13205718 -44.00460667 80.04171197 -41.54150391 81.82861328 C-39.34602532 83.49695447 -37.67775849 85.49801741 -35.9375 87.625 C-35.40898438 88.22570312 -34.88046875 88.82640625 -34.3359375 89.4453125 C-33.20384976 90.76277133 -32.12656368 92.1270146 -31.0625 93.5 C-28.55455421 95.32396058 -26.650627 95.53359924 -23.58374023 95.47265625 C-17.64387751 94.38604808 -12.30027575 91.04660013 -7 88.25 C-5.75597775 87.60788215 -4.51119008 86.96724496 -3.265625 86.328125 C-0.88820385 85.10606984 1.48278483 83.8737162 3.8515625 82.63476562 C6.46847116 81.27598613 9.09875151 79.96160689 11.75 78.671875 C14.9884669 77.21508251 14.9884669 77.21508251 17 75 C17.43413904 72.8100627 17.76158937 70.59854336 18.03515625 68.3828125 C18.11873886 67.72924774 18.20232147 67.07568298 18.28843689 66.40231323 C18.55451115 64.31079647 18.80897637 62.21807189 19.0625 60.125 C19.32169676 58.03939263 19.58331393 55.95411978 19.84727478 53.86911011 C20.08640568 51.97206426 20.31888041 50.07418292 20.55102539 48.17626953 C20.90099126 45.70043701 21.38493741 43.41263259 22 41 C22.11782292 38.62710114 22.17510026 36.25078987 22.1875 33.875 C22.20167969 32.63492188 22.21585937 31.39484375 22.23046875 30.1171875 C22.33360843 26.89824543 22.33360843 26.89824543 20 25 C15.50747611 23.68190615 10.8987059 22.80976942 6.3125 21.875 C5.64640717 21.73893341 4.98031433 21.60286682 4.29403687 21.462677 C-6.45833562 19.29421994 -16.12071174 18.25553008 -27.05419922 19.28857422 Z " fill="#373D43" transform="translate(59,13)"/>
<path d="M0 0 C1.04414062 0.17402344 2.08828125 0.34804688 3.1640625 0.52734375 C4.15921875 0.70136719 5.154375 0.87539063 6.1796875 1.0546875 C7.53296143 1.29034424 7.53296143 1.29034424 8.91357422 1.53076172 C11.125 2.125 11.125 2.125 13.125 4.125 C14.10984375 4.23070312 15.0946875 4.33640625 16.109375 4.4453125 C21.35726456 5.06798955 25.7344002 7.60507057 30.375 10 C31.2721875 10.44730469 32.169375 10.89460938 33.09375 11.35546875 C41.40435618 15.57297698 41.40435618 15.57297698 43.125 18.125 C42.87372229 22.43506423 41.50667533 25.98364261 39.76171875 29.8984375 C39.04918945 31.5071875 39.04918945 31.5071875 38.32226562 33.1484375 C37.82404297 34.25445312 37.32582031 35.36046875 36.8125 36.5 C36.32587891 37.59828125 35.83925781 38.6965625 35.33789062 39.828125 C33.95327807 42.93651497 32.54684659 46.03348587 31.125 49.125 C30.74811035 49.95032227 30.3712207 50.77564453 29.98291016 51.62597656 C28.33209995 55.10674248 27.39479304 56.94513797 24.125 59.125 C18.85987235 60.59307346 13.59761774 61.41303251 8.125 61.125 C8.455 60.135 8.785 59.145 9.125 58.125 C9.32950054 56.24331105 9.49040202 54.356727 9.625 52.46875 C9.7075 51.36402344 9.79 50.25929687 9.875 49.12109375 C9.9575 47.96738281 10.04 46.81367187 10.125 45.625 C10.28814669 43.34349556 10.45465854 41.06222855 10.625 38.78125 C10.6971875 37.76869141 10.769375 36.75613281 10.84375 35.71289062 C11.125 33.125 11.125 33.125 12.125 30.125 C12.29177282 26.54156024 12.29177282 26.54156024 12.125 23.125 C11.0206608 21.80079751 11.0206608 21.80079751 8.25 21.9375 C4.95929242 21.87156487 4.95929242 21.87156487 2.125 24.125 C1.526875 23.485625 0.92875 22.84625 0.3125 22.1875 C-1.78310337 19.92189611 -1.78310337 19.92189611 -4.875 19.125 C-5.535 18.135 -6.195 17.145 -6.875 16.125 C-7.431875 16.22039063 -7.98875 16.31578125 -8.5625 16.4140625 C-14.2639729 17.24231701 -18.37324076 16.82554377 -23.875 15.125 C-23.73333643 13.20802063 -23.58650416 11.29142277 -23.4375 9.375 C-23.35628906 8.30765625 -23.27507813 7.2403125 -23.19140625 6.140625 C-22.93245157 3.67256308 -22.69926229 1.4613196 -21.875 -0.875 C-15.66201505 -3.98149248 -6.49223427 -1.15581443 0 0 Z " fill="#E6EDF3" transform="translate(80.875,16.875)"/>
<path d="M0 0 C2.11701574 3.17552361 2.27050031 4.14966859 1.61914062 7.77880859 C0.21216297 12.82639643 -2.09088261 17.55173072 -4.25 22.3125 C-4.96736328 23.92801758 -4.96736328 23.92801758 -5.69921875 25.57617188 C-13.88192258 43.88192258 -13.88192258 43.88192258 -17 47 C-18.75885327 47.35686878 -20.53338325 47.63906841 -22.3125 47.875 C-27.04739151 48.65080797 -29.38434996 49.78608885 -33 53 C-37.10688181 54.4667435 -40.64031911 55.26422308 -45 55 C-45.19078125 55.91394531 -45.3815625 56.82789063 -45.578125 57.76953125 C-47.40804939 61.92707925 -49.78464759 62.95752493 -53.75 64.6875 C-55.19217934 65.35771396 -56.63353902 66.02969355 -58.07421875 66.703125 C-58.85845215 67.06341797 -59.64268555 67.42371094 -60.45068359 67.79492188 C-63.23580071 69.1114645 -65.9707574 70.50670335 -68.70703125 71.921875 C-69.67737305 72.42114502 -70.64771484 72.92041504 -71.64746094 73.43481445 C-73.55854553 74.41996735 -75.4668647 75.41050757 -77.37207031 76.40698242 C-83.59600246 79.57252529 -88.48383285 81.94183049 -95.5 80.0625 C-100.09081776 77.77215825 -102.82713052 73.91734164 -106 70 C-108.0716678 67.57326998 -110.16281895 65.16339114 -112.25 62.75 C-120.95496207 52.66055628 -120.95496207 52.66055628 -121.1875 49.25 C-121.125625 48.5075 -121.06375 47.765 -121 47 C-120.47019531 47.68449219 -119.94039063 48.36898437 -119.39453125 49.07421875 C-116.62537662 52.45773722 -113.68152951 55.62886014 -110.6875 58.8125 C-106.43676278 63.35793119 -102.23424097 67.92856679 -98.171875 72.64453125 C-96.6001148 74.62668445 -96.6001148 74.62668445 -94.24656677 75.23114014 C-87.98136242 75.42211236 -83.64648438 73.99864394 -78.09765625 71.203125 C-76.89199257 70.61806183 -76.89199257 70.61806183 -75.66197205 70.0211792 C-73.97806873 69.1990592 -72.29836341 68.36828916 -70.62280273 67.52929688 C-68.05541696 66.24646085 -65.47380203 64.99662518 -62.88867188 63.75 C-61.24906518 62.94460865 -59.61035912 62.13738062 -57.97265625 61.328125 C-57.20188248 60.95504211 -56.4311087 60.58195923 -55.63697815 60.1975708 C-54.92541061 59.83749939 -54.21384308 59.47742798 -53.48071289 59.10644531 C-52.85499893 58.79555969 -52.22928497 58.48467407 -51.58460999 58.16436768 C-49.58381612 56.69418907 -48.91785528 55.28350074 -48 53 C-47.67305058 51.02809694 -47.67305058 51.02809694 -47.65625 48.99609375 C-47.62660156 48.25552734 -47.59695312 47.51496094 -47.56640625 46.75195312 C-47.52202343 45.20508133 -47.47775316 43.65820631 -47.43359375 42.11132812 C-47.27945979 38.26803124 -47.17911627 36.2686744 -45 33 C-43.68 33.66 -42.36 34.32 -41 35 C-41.48821094 39.29625631 -42.29294512 41.6615409 -45 45 C-44.19256348 44.90912109 -43.38512695 44.81824219 -42.55322266 44.72460938 C-38.91060863 44.31526793 -35.26780787 43.90761257 -31.625 43.5 C-30.35398437 43.35691406 -29.08296875 43.21382812 -27.7734375 43.06640625 C-25.95585937 42.86337891 -25.95585937 42.86337891 -24.1015625 42.65625 C-22.98088379 42.53056641 -21.86020508 42.40488281 -20.70556641 42.27539062 C-18 42 -18 42 -16 42 C-15.649375 40.845 -15.29875 39.69 -14.9375 38.5 C-11.77859695 29.00831976 -7.37418406 19.9168684 -3.125 10.875 C-1.45932563 7.2542062 -0.32585443 4.01887128 0 0 Z " fill="#010102" transform="translate(125,34)"/>
<path d="M0 0 C0.33 0 0.66 0 1 0 C1.125 6.625 1.125 6.625 0 10 C-0.20447855 11.86994925 -0.36539027 13.74482035 -0.5 15.62109375 C-0.5825 16.72130859 -0.665 17.82152344 -0.75 18.95507812 C-0.8325 20.10427734 -0.915 21.25347656 -1 22.4375 C-1.16349439 24.70726198 -1.33003587 26.97680706 -1.5 29.24609375 C-1.5721875 30.25341553 -1.644375 31.2607373 -1.71875 32.29858398 C-2 35 -2 35 -3 39 C-8.445 39.495 -8.445 39.495 -14 40 C-13.34515625 39.10152344 -12.6903125 38.20304687 -12.015625 37.27734375 C-8.99453797 31.99044145 -9.56731127 26.48231739 -9.75 20.5625 C-9.76804687 19.44939453 -9.78609375 18.33628906 -9.8046875 17.18945312 C-9.85156681 14.45873354 -9.91717181 11.72982614 -10 9 C-8.88625 8.896875 -7.7725 8.79375 -6.625 8.6875 C-5.42875 8.460625 -4.2325 8.23375 -3 8 C-1.0549 5.08235 -0.54723683 3.37462715 0 0 Z " fill="#747D85" transform="translate(93,40)"/>
<path d="M0 0 C1.65 0 3.3 0 5 0 C6.76462683 3.08809695 7 4.23312136 7 8 C11.29 8.33 15.58 8.66 20 9 C20 8.34 20 7.68 20 7 C24.96432365 6.70798096 28.03701574 6.85292427 32 10 C32.495 11.485 32.495 11.485 33 13 C32.67 13.66 32.34 14.32 32 15 C28.34618837 15.08304117 25.58779175 14.89694794 22 14 C25.63 14.99 29.26 15.98 33 17 C33 17.33 33 17.66 33 18 C27.375 20 27.375 20 24 20 C22.97895449 19.02149805 21.9793879 18.02019573 21 17 C20.01 16.67 19.02 16.34 18 16 C17.34 15.01 16.68 14.02 16 13 C15.443125 13.09539063 14.88625 13.19078125 14.3125 13.2890625 C8.6110271 14.11731701 4.50175924 13.70054377 -1 12 C-0.67 8.04 -0.34 4.08 0 0 Z " fill="#D8D9DA" transform="translate(58,20)"/>
<path d="M0 0 C0.33 0 0.66 0 1 0 C0.99250732 0.71430176 0.98501465 1.42860352 0.97729492 2.16455078 C0.55063533 18.40376507 0.55063533 18.40376507 7.43774414 32.43188477 C9.69296532 34.61410311 11.9997376 36.69259018 14.42919922 38.67919922 C16.59196911 40.49775457 18.41400859 42.5448712 20.25 44.6875 C20.77078125 45.26886719 21.2915625 45.85023437 21.828125 46.44921875 C23 48 23 48 24 51 C33.31616401 52.3074374 40.16596387 48.5082842 48.125 44.25 C49.35970322 43.60750003 50.595377 42.96686165 51.83203125 42.328125 C54.18720099 41.10872422 56.53475937 39.87757985 58.87988281 38.63867188 C61.50588148 37.25950888 64.14414573 35.92009179 66.8046875 34.609375 C69.78886996 33.3156124 69.78886996 33.3156124 71 32 C71.39943176 29.47804033 71.75079848 26.97036344 72.0625 24.4375 C72.15337891 23.72658203 72.24425781 23.01566406 72.33789062 22.28320312 C72.56239503 20.52261597 72.78168397 18.76136522 73 17 C73.33 17 73.66 17 74 17 C74.0814222 19.22855574 74.13938079 21.45797655 74.1875 23.6875 C74.23970703 25.54955078 74.23970703 25.54955078 74.29296875 27.44921875 C73.96219811 31.45815886 73.45098582 32.84731215 71 36 C68.44648298 37.76061814 65.72138769 39.08420595 62.9296875 40.42578125 C62.13402374 40.81823532 61.33835999 41.21068939 60.51858521 41.61503601 C58.83586657 42.43972476 57.14954992 43.25710698 55.45996094 44.06762695 C52.89340748 45.30363527 50.3452623 46.5727413 47.796875 47.84570312 C46.15465034 48.64529556 44.5114498 49.44288741 42.8671875 50.23828125 C42.1137204 50.61632401 41.3602533 50.99436676 40.58395386 51.38386536 C35.38610002 53.83357982 30.75203352 54.83913625 25 54 C22.6171875 52.53125 22.6171875 52.53125 20.875 50.5 C20.22144531 49.76394531 19.56789063 49.02789062 18.89453125 48.26953125 C18.26933594 47.52058594 17.64414062 46.77164063 17 46 C16.13955078 45.04673828 16.13955078 45.04673828 15.26171875 44.07421875 C14.11180773 42.79742099 12.98192721 41.50234366 11.87109375 40.19140625 C10.48182908 38.56431339 9.05031178 36.97310135 7.59765625 35.40234375 C2.05578952 29.17759297 -0.26198425 25.29616797 0 17 C-0.00548051 15.53122329 -0.01636441 14.06246151 -0.03125 12.59375 C-0.06566777 8.39478236 -0.04383948 4.19884778 0 0 Z " fill="#444E56" transform="translate(4,56)"/>
<path d="M0 0 C18.79056621 -0.22639236 33.02759993 6.33231371 49 16 C51 18 51 18 51.44921875 20.859375 C51.27124861 26.7430373 48.23980653 32.00901208 45.8125 37.25 C45.32974609 38.31863281 44.84699219 39.38726562 44.34960938 40.48828125 C43.38596085 42.61736242 42.41485781 44.74308657 41.43603516 46.86523438 C40.47036606 48.97322336 39.52235955 51.08938445 38.59130859 53.21289062 C37.93316162 54.70852539 37.93316162 54.70852539 37.26171875 56.234375 C36.87330811 57.12866211 36.48489746 58.02294922 36.0847168 58.94433594 C35 61 35 61 33 62 C30.6670134 62.04022391 28.33293334 62.04320247 26 62 C26 61.67 26 61.34 26 61 C27.051875 60.87625 28.10375 60.7525 29.1875 60.625 C31.76371785 59.87851702 32.75875012 59.36311404 34.25952148 57.10424805 C34.62634033 56.31058838 34.99315918 55.51692871 35.37109375 54.69921875 C35.79334229 53.79945312 36.21559082 52.8996875 36.65063477 51.97265625 C37.09592529 50.99167969 37.54121582 50.01070312 38 49 C38.47687256 47.98292969 38.95374512 46.96585938 39.44506836 45.91796875 C40.95009208 42.68665981 42.41583235 39.43974535 43.875 36.1875 C44.38546875 35.08212891 44.8959375 33.97675781 45.421875 32.83789062 C46.13730469 31.2378418 46.13730469 31.2378418 46.8671875 29.60546875 C47.30144043 28.64793701 47.73569336 27.69040527 48.18310547 26.70385742 C49.12350771 23.59119908 49.16414429 22.03099909 48 19 C46.23211531 17.44622898 46.23211531 17.44622898 43.921875 16.39453125 C43.09042969 15.96849609 42.25898437 15.54246094 41.40234375 15.10351562 C40.08943359 14.46446289 40.08943359 14.46446289 38.75 13.8125 C37.89019531 13.37486328 37.03039062 12.93722656 36.14453125 12.48632812 C30.51549464 9.64578962 25.21770789 7.18432531 19 6 C17.453125 5.5359375 17.453125 5.5359375 15.875 5.0625 C11.73928807 3.8272763 7.51878597 3.21267579 3.2578125 2.5625 C2.51273437 2.376875 1.76765625 2.19125 1 2 C0.67 1.34 0.34 0.68 0 0 Z " fill="#404952" transform="translate(74,15)"/>
<path d="M0 0 C0.66 0.99 1.32 1.98 2 3 C0.93007813 2.96519531 -0.13984375 2.93039063 -1.2421875 2.89453125 C-11.2176023 2.67926646 -20.95994776 3.23758301 -30.875 4.375 C-31.9976123 4.50108643 -33.12022461 4.62717285 -34.27685547 4.75708008 C-39.35773401 5.3755044 -43.17694065 6.07077626 -48 8 C-47.67 22.19 -47.34 36.38 -47 51 C-48.87790618 47.24418763 -49.330208 45.45566147 -49.6328125 41.4140625 C-49.71700439 40.32424072 -49.80119629 39.23441895 -49.88793945 38.11157227 C-50.00528442 36.38571899 -50.00528442 36.38571899 -50.125 34.625 C-50.2077417 33.45573975 -50.2904834 32.28647949 -50.37573242 31.08178711 C-51.92448144 8.16253008 -51.92448144 8.16253008 -49.72949219 5.40234375 C-47.71720324 3.7706967 -46.51305226 3.47128021 -43.96484375 3.12109375 C-43.1641748 3.00540039 -42.36350586 2.88970703 -41.53857422 2.77050781 C-40.68021973 2.66061523 -39.82186523 2.55072266 -38.9375 2.4375 C-37.6074292 2.25525879 -37.6074292 2.25525879 -36.25048828 2.06933594 C-33.5019608 1.69895659 -30.75134035 1.34878925 -28 1 C-27.16194824 0.88736816 -26.32389648 0.77473633 -25.46044922 0.65869141 C-5.91102872 -1.96594482 -5.91102872 -1.96594482 0 0 Z " fill="#2D333B" transform="translate(52,30)"/>
<path d="M0 0 C2.00277585 0.31622777 4.00189338 0.65549886 6 1 C6.81984375 1.11085937 7.6396875 1.22171875 8.484375 1.3359375 C12.45688674 1.95884615 15.3215374 2.51538386 18.625 4.875 C23.33021808 15.56867746 19.00715452 31.91466074 17 43 C16.67 43.66 16.34 44.32 16 45 C17.485 45.495 17.485 45.495 19 46 C17.02 46 15.04 46 13 46 C13.33 45.01 13.66 44.02 14 43 C14.20450054 41.11831105 14.36540202 39.231727 14.5 37.34375 C14.5825 36.23902344 14.665 35.13429687 14.75 33.99609375 C14.8325 32.84238281 14.915 31.68867187 15 30.5 C15.16314669 28.21849556 15.32965854 25.93722855 15.5 23.65625 C15.5721875 22.64369141 15.644375 21.63113281 15.71875 20.58789062 C16 18 16 18 17 15 C17.25003964 11.45821402 17.25003964 11.45821402 17 8 C14.06726519 5.06726519 10.69211651 4.81417842 6.7265625 3.87890625 C3.94619197 2.98265501 2.20979374 1.87989563 0 0 Z " fill="#AEB9C4" transform="translate(76,32)"/>
<path d="M0 0 C0.66 0 1.32 0 2 0 C2 0.66 2 1.32 2 2 C2.66 2 3.32 2 4 2 C5.17372774 6.6854454 5.2190104 11.26298556 5.25 16.0625 C5.270625 16.86494141 5.29125 17.66738281 5.3125 18.49414062 C5.33574321 21.99514922 5.34496947 24.34998335 3.68359375 27.48046875 C1.36668057 29.57160385 -1.01842851 30.20491427 -4 31 C-3.34515625 30.10152344 -2.6903125 29.20304687 -2.015625 28.27734375 C1.00546203 22.99044145 0.43268873 17.48231739 0.25 11.5625 C0.23195313 10.44939453 0.21390625 9.33628906 0.1953125 8.18945312 C0.14843319 5.45873354 0.08282819 2.72982614 0 0 Z " fill="#61686F" transform="translate(83,49)"/>
<path d="M0 0 C1.65 0 3.3 0 5 0 C6.76462683 3.08809695 7 4.23312136 7 8 C7.94875 8.103125 8.8975 8.20625 9.875 8.3125 C13 9 13 9 15 12 C13 14 13 14 10.50390625 14.01171875 C9.53324219 13.90472656 8.56257813 13.79773437 7.5625 13.6875 C6.59441406 13.58824219 5.62632813 13.48898438 4.62890625 13.38671875 C2 13 2 13 -1 12 C-0.67 8.04 -0.34 4.08 0 0 Z " fill="#A4A7A9" transform="translate(58,20)"/>
<path d="M0 0 C11.52164009 -0.18451025 11.52164009 -0.18451025 17 1 C15 3 15 3 11.5234375 3.1953125 C10.14049032 3.18201493 8.75761346 3.15816232 7.375 3.125 C6.66859375 3.11597656 5.9621875 3.10695313 5.234375 3.09765625 C3.48943902 3.07407603 1.74467705 3.03820461 0 3 C-0.03738281 3.64066406 -0.07476562 4.28132813 -0.11328125 4.94140625 C-0.54337277 10.60006141 -1.46086906 14.92173813 -4 20 C-6.49361571 18.79618552 -8.68143083 17.54571278 -11 16 C-9.92598892 13.08482708 -9.22189824 11.22189824 -7 9 C-6.01 9 -5.02 9 -4 9 C-2.68 6.03 -1.36 3.06 0 0 Z " fill="#31383F" transform="translate(59,13)"/>
<path d="M0 0 C2.625 0.9375 2.625 0.9375 5 2 C5.33292585 6.24480464 5.43885872 8.35542625 3 11.9375 C2.34 12.618125 1.68 13.29875 1 14 C-1.97 13.505 -1.97 13.505 -5 13 C-5.75 9.8125 -5.75 9.8125 -6 6 C-4.23358828 3.19810554 -2.96950178 1.48475089 0 0 Z " fill="#1E1E1E" transform="translate(73,46)"/>
<path d="M0 0 C1.36125 0.37125 1.36125 0.37125 2.75 0.75 C3.68050292 4.38742049 4.05458505 6.12698512 2.375 9.5625 C0.75 11.75 0.75 11.75 -0.25 12.75 C-3.25 12.875 -3.25 12.875 -6.25 12.75 C-7.25 11.75 -7.25 11.75 -7.5625 7.9375 C-7.51271519 4.86190489 -7.32883883 3.87432277 -5.625 1.1875 C-3.25 -0.25 -3.25 -0.25 0 0 Z " fill="#191A1B" transform="translate(44.25,89.25)"/>
<path d="M0 0 C2.875 0.3125 2.875 0.3125 3.875 1.3125 C4.33595527 8.34206785 4.33595527 8.34206785 2.6875 11.8125 C0.875 13.3125 0.875 13.3125 -1.6875 13.6875 C-4.125 13.3125 -4.125 13.3125 -6.125 11.3125 C-6.457557 7.7208844 -6.52366425 5.17627254 -5 1.875 C-3.125 0.3125 -3.125 0.3125 0 0 Z " fill="#242525" transform="translate(59.125,67.6875)"/>
<path d="M0 0 C1 1 1 1 1.375 3.75 C1 7 1 7 -1.1875 9.9375 C-4 12 -4 12 -6.8125 11.8125 C-7.534375 11.544375 -8.25625 11.27625 -9 11 C-9.36180905 3.64321608 -9.36180905 3.64321608 -7.875 1 C-5.18003295 -0.43731576 -2.99894961 -0.26077823 0 0 Z " fill="#2F3030" transform="translate(92,38)"/>
<path d="M0 0 C0.66 0.99 1.32 1.98 2 3 C0.80246094 2.97679687 -0.39507812 2.95359375 -1.62890625 2.9296875 C-10.86468891 2.80772524 -19.6648308 3.08928963 -28.80078125 4.5625 C-31.91272626 4.98806513 -34.86382885 5.07591337 -38 5 C-38 4.34 -38 3.68 -38 3 C-9.99406834 -3.32392005 -9.99406834 -3.32392005 0 0 Z " fill="#384149" transform="translate(52,30)"/>
<path d="M0 0 C1.32 0.66 2.64 1.32 4 2 C3.51178906 6.29625631 2.70705488 8.6615409 0 12 C1.485 11.7834375 1.485 11.7834375 3 11.5625 C9.68866708 10.61290055 16.22670653 9.72353904 23 10 C23 10.33 23 10.66 23 11 C19.58449704 11.67272347 16.16742548 12.33711799 12.75 13 C11.78191406 13.19078125 10.81382813 13.3815625 9.81640625 13.578125 C8.88183594 13.75859375 7.94726562 13.9390625 6.984375 14.125 C5.69611816 14.37636719 5.69611816 14.37636719 4.38183594 14.6328125 C2 15 2 15 -2 15 C-2.05406122 13.06280622 -2.09282025 11.12518079 -2.125 9.1875 C-2.14820312 8.10855469 -2.17140625 7.02960938 -2.1953125 5.91796875 C-2 3 -2 3 0 0 Z " fill="#2D343B" transform="translate(80,67)"/>
<path d="M0 0 C0.7425 0.2475 1.485 0.495 2.25 0.75 C3 2.9375 3 2.9375 3.25 5.75 C1.625 8.5625 1.625 8.5625 -0.75 10.75 C-3.4375 11.125 -3.4375 11.125 -5.75 10.75 C-6.75 9.75 -6.75 9.75 -7.0625 6.9375 C-6.75 3.75 -6.75 3.75 -5.0625 1.3125 C-2.75 -0.25 -2.75 -0.25 0 0 Z " fill="#202020" transform="translate(115.75,39.25)"/>
<path d="M0 0 C2.58137192 0.25813719 3.80661915 0.82733852 5.75 2.5625 C7.58461055 6.13999057 7.19968583 9.00628343 7 13 C4.6875 13.25 4.6875 13.25 2 13 C-0.19527895 11.18321742 -0.91220275 9.82210152 -1.21484375 6.98828125 C-1.24711315 4.99116393 -1.13069492 2.99309753 -1 1 C-0.67 0.67 -0.34 0.34 0 0 Z " fill="#2E2E2E" transform="translate(22,52)"/>
<path d="M0 0 C0.928125 0.0825 1.85625 0.165 2.8125 0.25 C3.17440476 5.67857143 3.17440476 5.67857143 1.625 8.125 C-0.74786279 9.59781139 -2.44663944 9.47223194 -5.1875 9.25 C-6.09741047 6.27211118 -6.44710381 4.81502006 -5.125 1.9375 C-3.1875 0.25 -3.1875 0.25 0 0 Z " fill="#151515" transform="translate(106.1875,64.75)"/>
<path d="M0 0 C0.33 0 0.66 0 1 0 C1 6.93 1 13.86 1 21 C0.01 20.67 -0.98 20.34 -2 20 C-2.33 20.99 -2.66 21.98 -3 23 C-3.8950292 20.06387762 -4.0294562 17.97288496 -3.4765625 14.9609375 C-3.3425 14.21585938 -3.2084375 13.47078125 -3.0703125 12.703125 C-2.84988281 11.55070312 -2.84988281 11.55070312 -2.625 10.375 C-2.41617188 9.21097656 -2.41617188 9.21097656 -2.203125 8.0234375 C-1.1497682 2.2995364 -1.1497682 2.2995364 0 0 Z " fill="#3B4147" transform="translate(82,47)"/>
<path d="M0 0 C0.99 0.495 0.99 0.495 2 1 C3.01910452 6.08898986 3.21166374 11.1418968 3.25 16.3125 C3.270625 17.02728516 3.29125 17.74207031 3.3125 18.47851562 C3.328125 20.55078125 3.328125 20.55078125 3 24 C2.01 24.66 1.02 25.32 0 26 C0 17.42 0 8.84 0 0 Z M-1 26 C-0.67 26.66 -0.34 27.32 0 28 C-0.66 27.67 -1.32 27.34 -2 27 C-1.67 26.67 -1.34 26.34 -1 26 Z " fill="#4F565C" transform="translate(83,49)"/>
<path d="M0 0 C0.33 0 0.66 0 1 0 C1.125 6.625 1.125 6.625 0 10 C-0.18146492 11.88212143 -0.31884671 13.76865234 -0.4296875 15.65625 C-0.50316406 16.76097656 -0.57664062 17.86570312 -0.65234375 19.00390625 C-0.80075052 21.33415286 -0.94138022 23.66490784 -1.07421875 25.99609375 C-1.15027344 27.10082031 -1.22632812 28.20554687 -1.3046875 29.34375 C-1.3972583 30.86258789 -1.3972583 30.86258789 -1.49169922 32.41210938 C-2.05354937 35.2726337 -2.74448072 36.22461976 -5 38 C-4.83483887 37.45794922 -4.66967773 36.91589844 -4.49951172 36.35742188 C-3.91288517 33.58886569 -3.93903531 31.11067981 -4.0078125 28.28125 C-4.02457031 27.18425781 -4.04132813 26.08726563 -4.05859375 24.95703125 C-4.10286772 22.6521805 -4.15495285 20.34746658 -4.21484375 18.04296875 C-4.22902344 16.94597656 -4.24320312 15.84898438 -4.2578125 14.71875 C-4.2798877 13.71779297 -4.30196289 12.71683594 -4.32470703 11.68554688 C-3.9480257 8.57013738 -2.98853756 7.3630974 -1 5 C-0.28566879 2.35065178 -0.28566879 2.35065178 0 0 Z " fill="#9099A2" transform="translate(93,40)"/>
<path d="M0 0 C2.4375 0.375 2.4375 0.375 5 1 C6.4783226 3.95664519 6.06032783 6.74229737 6 10 C4.68 10.33 3.36 10.66 2 11 C-0.67927341 6.98108988 -0.15601248 4.75838077 0 0 Z " fill="#171818" transform="translate(8,73)"/>
<path d="M0 0 C1.32 0.33 2.64 0.66 4 1 C3.67 3.64 3.34 6.28 3 9 C0.03 8.505 0.03 8.505 -3 8 C-3.33 7.01 -3.66 6.02 -4 5 C-2.0625 2.3125 -2.0625 2.3125 0 0 Z " fill="#000000" transform="translate(52,22)"/>
<path d="M0 0 C2.00277585 0.31622777 4.00189338 0.65549886 6 1 C6.81984375 1.11085937 7.6396875 1.22171875 8.484375 1.3359375 C12.45688674 1.95884615 15.3215374 2.51538386 18.625 4.875 C20.78926472 9.79378346 20.30386662 14.70765634 20 20 C19.67 20 19.34 20 19 20 C18.87882812 19.15695313 18.75765625 18.31390625 18.6328125 17.4453125 C18.46523437 16.34960938 18.29765625 15.25390625 18.125 14.125 C17.96257812 13.03445312 17.80015625 11.94390625 17.6328125 10.8203125 C17.23743487 7.88067286 17.23743487 7.88067286 15 6 C12.26528201 5.17090296 9.50747887 4.53478275 6.7265625 3.87890625 C3.94619197 2.98265501 2.20979374 1.87989563 0 0 Z " fill="#C5C8CC" transform="translate(76,32)"/>
<path d="M0 0 C5.81651988 1.53066313 12.67737387 4.67737387 17 9 C17.35897436 15.46153846 17.35897436 15.46153846 15 19 C15.165 17.783125 15.33 16.56625 15.5 15.3125 C15.59076379 13.09703141 15.59076379 13.09703141 15 11 C12.66063308 8.70825378 9.92284982 7.428384 7 6 C5.66203475 5.23723477 4.32824739 4.46706442 3 3.6875 C2.01 3.130625 1.02 2.57375 0 2 C0 1.34 0 0.68 0 0 Z " fill="#374149" transform="translate(108,24)"/>
<path d="M0 0 C1.66611905 -0.042721 3.33382885 -0.04063832 5 0 C6 1 6 1 6.0625 3.5625 C6.041875 4.366875 6.02125 5.17125 6 6 C1.25 7 1.25 7 -1 7 C-0.67 4.69 -0.34 2.38 0 0 Z " fill="#6D6D6D" transform="translate(68,50)"/>
<path d="M0 0 C1.1446875 0.4021875 1.1446875 0.4021875 2.3125 0.8125 C7.16474415 2.3750871 12.07563928 3.68566885 17 5 C17 5.33 17 5.66 17 6 C11.375 8 11.375 8 8 8 C6.97895449 7.02149805 5.9793879 6.02019573 5 5 C4.01 4.67 3.02 4.34 2 4 C0.8125 1.9375 0.8125 1.9375 0 0 Z " fill="#909497" transform="translate(74,32)"/>
<path d="M0 0 C8.57142857 0.85714286 8.57142857 0.85714286 12 3 C12 3.66 12 4.32 12 5 C10.3739713 4.93999894 8.74898451 4.8512115 7.125 4.75 C5.76761719 4.68039063 5.76761719 4.68039063 4.3828125 4.609375 C2 4 2 4 0.6796875 1.953125 C0.45539063 1.30859375 0.23109375 0.6640625 0 0 Z " fill="#4F5051" transform="translate(86,22)"/>
<path d="M0 0 C2.5 0.125 2.5 0.125 3.5 1.125 C3.54063832 2.79117115 3.542721 4.45888095 3.5 6.125 C1.52 6.125 -0.46 6.125 -2.5 6.125 C-2.88218767 4.46885343 -3.21395102 2.80042976 -3.5 1.125 C-2.5 0.125 -2.5 0.125 0 0 Z " fill="#6A6A6A" transform="translate(40.5,91.875)"/>
<path d="M0 0 C1.95803507 -0.05389087 3.91648909 -0.09274217 5.875 -0.125 C7.51082031 -0.15980469 7.51082031 -0.15980469 9.1796875 -0.1953125 C12 0 12 0 14 2 C13 3 13 3 9.83984375 3.09765625 C7.90818359 3.08025391 7.90818359 3.08025391 5.9375 3.0625 C4.64714844 3.05347656 3.35679688 3.04445312 2.02734375 3.03515625 C1.02832031 3.02355469 0.02929688 3.01195312 -1 3 C-0.67 2.01 -0.34 1.02 0 0 Z " fill="#363737" transform="translate(36,36)"/>
<path d="M0 0 C6.50313209 -0.46450943 10.4174808 0.67424388 16 4 C15.67 4.99 15.34 5.98 15 7 C14.40832031 6.72285156 13.81664063 6.44570313 13.20703125 6.16015625 C9.11217077 4.28306686 5.44172276 2.83282302 1 2 C0.67 1.34 0.34 0.68 0 0 Z " fill="#50585F" transform="translate(92,19)"/>
<path d="M0 0 C1.65 0.33 3.3 0.66 5 1 C5.33 2.98 5.66 4.96 6 7 C4.02 7 2.04 7 0 7 C-1.125 2.25 -1.125 2.25 0 0 Z " fill="#6D6D6D" transform="translate(54,70)"/>
<path d="M0 0 C2.97 0.33 5.94 0.66 9 1 C9.33 2.32 9.66 3.64 10 5 C3.9453125 4.609375 3.9453125 4.609375 2 4 C1.34 2.68 0.68 1.36 0 0 Z " fill="#4E4E4E" transform="translate(79,27)"/>
<path d="M0 0 C0.99 0 1.98 0 3 0 C2.979375 0.7425 2.95875 1.485 2.9375 2.25 C2.99328688 4.70462279 3.3069904 6.66109261 4 9 C2.68 9 1.36 9 0 9 C-1 8 -1 8 -1.125 4.5 C-1 1 -1 1 0 0 Z " fill="#191819" transform="translate(60,20)"/>
<path d="M0 0 C4.455 0.99 4.455 0.99 9 2 C5.8745041 4.64465038 2.91211733 5.84414715 -1 7 C-0.67 4.69 -0.34 2.38 0 0 Z " fill="#C7D9E8" transform="translate(37,101)"/>
<path d="M0 0 C1.32 0.66 2.64 1.32 4 2 C3.75 4.8125 3.75 4.8125 3 8 C1.68 8.99 0.36 9.98 -1 11 C-0.67 7.37 -0.34 3.74 0 0 Z " fill="#0A0B0C" transform="translate(80,67)"/>
<path d="M0 0 C1.99954746 -0.04254356 4.00041636 -0.04080783 6 0 C7 1 7 1 7.0625 4.5625 C7.041875 5.696875 7.02125 6.83125 7 8 C6.34 8 5.68 8 5 8 C4.67 6.68 4.34 5.36 4 4 C2.35 3.67 0.7 3.34 -1 3 C-0.67 2.01 -0.34 1.02 0 0 Z " fill="#151616" transform="translate(56,68)"/>
<path d="M0 0 C0.99 0.66 1.98 1.32 3 2 C3.1875 4.625 3.1875 4.625 3 7 C1.02 7.33 -0.96 7.66 -3 8 C-2.25 2.25 -2.25 2.25 0 0 Z " fill="#5D5D5E" transform="translate(103,65)"/>
<path d="M0 0 C2.97 0.495 2.97 0.495 6 1 C6.33 2.98 6.66 4.96 7 7 C6.01 7.495 6.01 7.495 5 8 C4.67 6.35 4.34 4.7 4 3 C2.02 3 0.04 3 -2 3 C-1.34 2.01 -0.68 1.02 0 0 Z " fill="#1C1E1F" transform="translate(41,89)"/>
<path d="M0 0 C2.625 0.75 2.625 0.75 5 2 C6.50662097 5.01324195 6.17770373 7.68286377 6 11 C5.34 11.66 4.68 12.32 4 13 C3.67 10.03 3.34 7.06 3 4 C1.02 3.34 -0.96 2.68 -3 2 C-2.01 1.34 -1.02 0.68 0 0 Z " fill="#596169" transform="translate(77,36)"/>
<path d="M0 0 C0.33 0 0.66 0 1 0 C1 6.6 1 13.2 1 20 C0.01 20 -0.98 20 -2 20 C-1.34 13.4 -0.68 6.8 0 0 Z " fill="#C5D4E2" transform="translate(94,57)"/>
<path d="M0 0 C0.66 0.33 1.32 0.66 2 1 C2 2.98 2 4.96 2 7 C0.35 7 -1.3 7 -3 7 C-3.33 6.01 -3.66 5.02 -4 4 C-2.68 2.68 -1.36 1.36 0 0 Z " fill="#676767" transform="translate(113,39)"/>
<path d="M0 0 C0.91007812 0.00902344 1.82015625 0.01804687 2.7578125 0.02734375 C3.45648438 0.03894531 4.15515625 0.05054687 4.875 0.0625 C5.205 0.7225 5.535 1.3825 5.875 2.0625 C-0.56 2.5575 -0.56 2.5575 -7.125 3.0625 C-7.125 2.4025 -7.125 1.7425 -7.125 1.0625 C-4.60024538 -0.19987731 -2.81299534 -0.03606404 0 0 Z " fill="#464E57" transform="translate(21.125,31.9375)"/>
<path d="M0 0 C0.66 0 1.32 0 2 0 C2.16435547 0.93972656 2.16435547 0.93972656 2.33203125 1.8984375 C2.49058594 2.71570313 2.64914063 3.53296875 2.8125 4.375 C2.96332031 5.18710938 3.11414063 5.99921875 3.26953125 6.8359375 C3.87544942 9.35820641 3.87544942 9.35820641 7 11 C6.34 11.66 5.68 12.32 5 13 C0.17970402 9.14376321 0.17970402 9.14376321 -0.33203125 5.88671875 C-0.3145776 3.92143786 -0.16596091 1.95833873 0 0 Z " fill="#B9C7D1" transform="translate(6,74)"/>
<path d="M0 0 C1.62600941 0.0870005 3.25089678 0.1951781 4.875 0.3125 C5.77992187 0.37050781 6.68484375 0.42851562 7.6171875 0.48828125 C10 1 10 1 12 4 C8.04 3.67 4.08 3.34 0 3 C0 2.01 0 1.02 0 0 Z " fill="#474F58" transform="translate(42,29)"/>
<path d="M0 0 C1.66611905 -0.042721 3.33382885 -0.04063832 5 0 C6 1 6 1 6.0625 4.0625 C6.041875 5.031875 6.02125 6.00125 6 7 C5.01 7.495 5.01 7.495 4 8 C3.67 6.35 3.34 4.7 3 3 C2.01 2.67 1.02 2.34 0 2 C0 1.34 0 0.68 0 0 Z " fill="#090909" transform="translate(87,38)"/>
<path d="M0 0 C6.625 0.625 6.625 0.625 10 4 C7.03 3.67 4.06 3.34 1 3 C0.67 2.01 0.34 1.02 0 0 Z " fill="#474849" transform="translate(109,30)"/>
<path d="M0 0 C1.5 1.25 1.5 1.25 3 3 C3 4.32 3 5.64 3 7 C1.68 6.67 0.36 6.34 -1 6 C-1.042721 4.33388095 -1.04063832 2.66617115 -1 1 C-0.67 0.67 -0.34 0.34 0 0 Z " fill="#5C5D5E" transform="translate(11,73)"/>
<path d="M0 0 C4.455 0.99 4.455 0.99 9 2 C9 2.66 9 3.32 9 4 C6.36 3.67 3.72 3.34 1 3 C0.67 2.01 0.34 1.02 0 0 Z " fill="#4F5050" transform="translate(65,16)"/>
<path d="M0 0 C0.66 0 1.32 0 2 0 C2.33 0.66 2.66 1.32 3 2 C3.99 2.33 4.98 2.66 6 3 C6 3.99 6 4.98 6 6 C4.35 5.67 2.7 5.34 1 5 C0.67 3.35 0.34 1.7 0 0 Z " fill="#090A0A" transform="translate(22,59)"/>
<path d="M0 0 C0.33 0.66 0.66 1.32 1 2 C2.89533342 2.46523063 2.89533342 2.46523063 5.0625 2.625 C6.361875 2.74875 7.66125 2.8725 9 3 C8.34 3.66 7.68 4.32 7 5 C4.27130593 4.96712417 1.7033382 4.43602229 -1 4 C-0.67 2.68 -0.34 1.36 0 0 Z " fill="#5A636C" transform="translate(56,30)"/>
<path d="M0 0 C3.63 0.33 7.26 0.66 11 1 C10.34 1.66 9.68 2.32 9 3 C6.8359375 2.9765625 6.8359375 2.9765625 4.375 2.625 C3.55773437 2.51414062 2.74046875 2.40328125 1.8984375 2.2890625 C1.27195312 2.19367187 0.64546875 2.09828125 0 2 C0 1.34 0 0.68 0 0 Z " fill="#30383F" transform="translate(65,13)"/>
<path d="M0 0 C2.31 0.66 4.62 1.32 7 2 C7 2.66 7 3.32 7 4 C2.25 5.125 2.25 5.125 0 4 C0 2.68 0 1.36 0 0 Z " fill="#0E0E0F" transform="translate(83,45)"/>
<path d="M0 0 C1.4540625 0.0309375 1.4540625 0.0309375 2.9375 0.0625 C2.9375 0.7225 2.9375 1.3825 2.9375 2.0625 C0.9575 2.3925 -1.0225 2.7225 -3.0625 3.0625 C-3.3925 4.3825 -3.7225 5.7025 -4.0625 7.0625 C-4.10504356 5.06295254 -4.10330783 3.06208364 -4.0625 1.0625 C-3.0625 0.0625 -3.0625 0.0625 0 0 Z " fill="#414952" transform="translate(62.0625,12.9375)"/>
<path d="M0 0 C0.33 0.99 0.66 1.98 1 3 C2.65 3 4.3 3 6 3 C6 3.66 6 4.32 6 5 C4.35 5.66 2.7 6.32 1 7 C0 6 0 6 -0.0625 2.9375 C-0.041875 1.968125 -0.02125 0.99875 0 0 Z " fill="#333434" transform="translate(37,95)"/>
<path d="M0 0 C3.77545388 1.09068668 6.47043472 1.9083091 9 5 C5.625 4.75 5.625 4.75 2 4 C0.5625 1.9375 0.5625 1.9375 0 0 Z " fill="#A5A6A8" transform="translate(74,32)"/>
<path d="M0 0 C0.33 1.32 0.66 2.64 1 4 C-1.375 5.5625 -1.375 5.5625 -4 7 C-4.66 6.67 -5.32 6.34 -6 6 C-5.67 5.34 -5.34 4.68 -5 4 C-4.01 4 -3.02 4 -2 4 C-1.34 2.68 -0.68 1.36 0 0 Z " fill="#5A636B" transform="translate(85,73)"/>
<path d="M0 0 C1.37562854 1.28965176 2.70766393 2.62689293 4 4 C4 4.66 4 5.32 4 6 C2.68 6 1.36 6 0 6 C0 4.02 0 2.04 0 0 Z " fill="#6C6C6C" transform="translate(25,53)"/>
</svg>
